<svg width="90" height="90" viewBox="0 0 90 90" fill="none" xmlns="http://www.w3.org/2000/svg">
<path d="M61.7617 11.543C71.0502 17.5894 78.0688 25.2054 81 36C82.2221 47.0621 81.867 57.5266 75.0117 66.6445C68.9148 73.8366 61.7403 80.1449 51.9934 81.2217C39.5901 81.8762 30.4435 81.0204 20.6875 72.75C13.9897 66.3466 9.16553 59.3312 8.66407 49.8281C8.39657 36.5138 10.1449 28.1193 19.6289 18.1992C30.4518 8.16081 48.1686 4.89899 61.7617 11.543ZM37.5625 26.4375C35.2834 30.1752 35.1936 33.695 35 38C34.8453 39.3303 34.8453 39.3303 34.6875 40.6875C34.8561 43.2592 34.8561 43.2592 37 45.875C39.3605 49.5633 39.3436 51.7057 39 56C38.2407 56.3145 37.4815 56.6291 36.6992 56.9531C35.7054 57.3811 34.7115 57.8091 33.6875 58.25C32.7014 58.6677 31.7152 59.0853 30.6992 59.5156C27.9159 61.0463 26.6668 62.3377 25 65C26.3791 68.4084 27.6056 69.6674 30.9375 71.1875C31.6272 71.5111 32.3168 71.8346 33.0273 72.168C39.7252 74.993 47.7898 75.1945 54.7813 73.2109C58.505 71.5849 61.9188 69.6793 65 67C64.0829 63.9151 63.4306 62.3199 60.8125 60.375C57.5809 58.7951 54.3263 57.3697 51 56C50.4955 49.6937 50.4955 49.6937 53 46.25C55.837 41.6399 55.6883 37.2982 55 32C53.4558 28.1395 51.8582 26.6775 48 25C44.1476 24.3643 41.0122 24.4031 37.5625 26.4375Z" fill="white"/>
</svg>
