<svg width="64" height="70" viewBox="0 0 64 70" fill="none" xmlns="http://www.w3.org/2000/svg">
<path d="M31.6667 0C49.1562 0 63.3333 14.1772 63.3333 31.6667C63.3333 49.1562 49.1562 63.3333 31.6667 63.3333C14.1772 63.3333 0 49.1562 0 31.6667C0 14.1772 14.1772 0 31.6667 0ZM31.6667 6.33333C24.9478 6.33333 18.5042 9.00237 13.7533 13.7533C9.00237 18.5042 6.33333 24.9478 6.33333 31.6667C6.33333 38.3855 9.00237 44.8291 13.7533 49.58C18.5042 54.331 24.9478 57 31.6667 57C38.3855 57 44.8291 54.331 49.58 49.58C54.331 44.8291 57 38.3855 57 31.6667C57 24.9478 54.331 18.5042 49.58 13.7533C44.8291 9.00237 38.3855 6.33333 31.6667 6.33333ZM18.1387 38.3515C22.629 37.3192 27.4328 37.3318 31.5875 37.9747C35.6282 38.6017 39.5485 39.9063 41.9647 41.8823C42.5912 42.3912 42.9998 43.1201 43.1069 43.9202C43.214 44.7202 43.0116 45.5309 42.541 46.1867C42.0704 46.8425 41.3671 47.2938 40.5749 47.4484C39.7827 47.6031 38.9613 47.4493 38.2787 47.0187L37.9557 46.7875C36.8283 45.8628 34.2253 44.7925 30.6153 44.2352C27.1162 43.6905 23.1357 43.7032 19.5573 44.5233C19.1499 44.6227 18.7268 44.6401 18.3126 44.5746C17.8984 44.509 17.5013 44.3619 17.1444 44.1417C16.7875 43.9214 16.4779 43.6325 16.2336 43.2917C15.9893 42.9508 15.8151 42.5649 15.7211 42.1562C15.6272 41.7475 15.6154 41.3242 15.6863 40.9108C15.7573 40.4975 15.9097 40.1024 16.1346 39.7485C16.3595 39.3945 16.6525 39.0888 16.9965 38.849C17.3405 38.6091 17.7288 38.4401 18.1387 38.3515ZM16.492 29.7033C26.8122 26.8248 38.817 28.4525 46.1415 32.9492C46.8575 33.3888 47.3695 34.0949 47.5649 34.9121C47.7602 35.7292 47.623 36.5905 47.1833 37.3065C46.7437 38.0225 46.0376 38.5345 45.2204 38.7299C44.4033 38.9252 43.542 38.788 42.826 38.3483C37.1798 34.8808 27.0243 33.3418 18.1893 35.8023C17.7848 35.9274 17.3593 35.9701 16.938 35.9278C16.5167 35.8856 16.1081 35.7592 15.7365 35.5563C15.3648 35.3534 15.0377 35.078 14.7743 34.7465C14.511 34.4149 14.3168 34.0339 14.2033 33.626C14.0897 33.218 14.0592 32.7915 14.1134 32.3716C14.1676 31.9516 14.3055 31.5468 14.5189 31.1811C14.7323 30.8154 15.0168 30.4961 15.3557 30.2423C15.6946 29.9885 16.081 29.8052 16.492 29.7033ZM14.9783 20.6277C26.885 17.3027 38.7157 19.0285 48.754 23.3637C49.5183 23.7011 50.1183 24.3268 50.4233 25.1046C50.7283 25.8825 50.7136 26.7493 50.3823 27.5163C50.051 28.2833 49.4301 28.8882 48.6547 29.1994C47.8794 29.5106 47.0124 29.5028 46.2428 29.1777C37.2812 25.3048 26.9452 23.864 16.682 26.7267C16.2792 26.8464 15.8566 26.8847 15.4388 26.8394C15.021 26.7941 14.6164 26.6661 14.2486 26.4629C13.8808 26.2596 13.5571 25.9852 13.2964 25.6556C13.0357 25.326 12.8432 24.9479 12.7301 24.5431C12.6171 24.1384 12.5857 23.7152 12.6379 23.2982C12.69 22.8812 12.8246 22.4788 13.0339 22.1144C13.2431 21.7499 13.5228 21.4308 13.8567 21.1755C14.1905 20.9203 14.5718 20.7341 14.9783 20.6277Z" fill="black"/>
</svg>
