<svg width="90" height="90" viewBox="0 0 90 90" fill="none" xmlns="http://www.w3.org/2000/svg">
<g clip-path="url(#clip0_580_854)">
<path d="M50 18C54.2987 20.1732 57.4543 22.3629 59 27C59.0951 29.3526 59.1299 31.7079 59.125 34.0625C59.1289 35.9361 59.1289 35.9361 59.1328 37.8476C59 41 59 41 58 43C57.34 43 56.68 43 56 43C55.8144 44.1756 55.8144 44.1756 55.625 45.375C55 48 55 48 53 50C52.7916 52.4813 52.7916 52.4813 54 55C56.283 56.5328 58.364 57.744 60.8125 58.9375C66.0201 61.4906 69.3076 63.5813 72 69C72 70.98 72 72.96 72 75C54.18 75 36.36 75 18 75C18 68.7594 18.149 67.5266 22 63C24.8675 60.9882 27.9895 59.5214 31.1309 57.9902C34.9458 56.0173 34.9458 56.0173 37.0156 52.3867C36.9956 49.3274 35.9204 48.3045 34 46C34 45.01 34 44.02 34 43C33.34 43 32.68 43 32 43C30.6278 36.482 29.9926 29.9161 32.1875 23.5625C36.6425 17.264 42.7199 16.7206 50 18Z" fill="white"/>
<path d="M63 24C65.97 24 68.94 24 72 24C72.33 24.99 72.66 25.98 73 27C74.3308 27.3434 75.6643 27.6762 77 28C79.4539 31.6808 79.3673 34.5502 79.375 38.8125C79.3995 39.5118 79.424 40.2111 79.4492 40.9316C79.4787 46.1924 78.0029 48.6059 75 53C74.71 55.7074 74.71 55.7074 76 58C78.4125 59.729 78.4125 59.729 81.375 61C85.7468 63.0302 88.0718 64.4878 90 69C90 70.98 90 72.96 90 75C85.71 75 81.42 75 77 75C76.7938 73.6594 76.5875 72.3188 76.375 70.9375C74.9621 64.7206 71.8976 60.9525 66.6406 57.4102C65.0661 56.4248 63.4718 55.4698 61.8555 54.5547C60 53 60 53 58.9883 50.7578C59.0025 47.4037 60.3073 45.7216 62.0566 42.9448C63.7572 39.439 63.42 35.8785 63.25 32.0625C63.232 31.2833 63.2139 30.504 63.1953 29.7012C63.1487 27.8002 63.0769 25.8999 63 24Z" fill="white"/>
<path d="M18 24C20.97 24 23.94 24 27 24C26.9304 25.719 26.9304 25.719 26.8594 27.4727C26.8218 29.0026 26.7854 30.5325 26.75 32.0625C26.7165 32.8147 26.683 33.5668 26.6484 34.3418C26.5767 38.482 26.8446 41.2006 29.0781 44.7461C31 48 31 48 31.082 50.6875C29.5843 53.8885 27.6245 55.0705 24.6875 57C19.994 60.1081 16.0285 62.9484 14.1719 68.457C14.0327 69.2343 13.8934 70.0116 13.75 70.8125C13.5025 72.1944 13.255 73.5762 13 75C8.71 75 4.42 75 0 75C0 67.7578 0 67.7578 3 64C5.91797 61.9805 5.91797 61.9805 9.1875 60.1875C10.2742 59.5829 11.3609 58.9784 12.4805 58.3555C13.3119 57.9082 14.1434 57.4609 15 57C14.5821 54.075 14.1155 52.1732 12.4609 49.6914C10.5225 46.1203 10.5597 42.8953 10.625 38.9375C10.6134 38.2304 10.6018 37.5234 10.5898 36.7949C10.6078 33.6161 10.8254 31.3262 12.3359 28.5039C14 27 14 27 17 27C17.33 26.01 17.66 25.02 18 24Z" fill="white"/>
</g>
<defs>
<clipPath id="clip0_580_854">
<rect width="90" height="90" fill="white"/>
</clipPath>
</defs>
</svg>
