<svg width="90" height="90" viewBox="0 0 90 90" fill="none" xmlns="http://www.w3.org/2000/svg">
<path d="M52 3C54.375 3.3125 54.375 3.3125 57 4C57.66 4.99 58.32 5.98 59 7C59.33 6.67 59.66 6.34 60 6C61.9996 5.95919 64.0005 5.95746 66 6C65.9794 6.64066 65.9588 7.28133 65.9375 7.94141C66.0415 13.4202 66.0415 13.4202 68.7422 18.0117C70.8336 19.759 70.8336 19.759 72.9922 21.2344C77.5334 25.2278 78.6978 31.0099 80.0625 36.6875C80.9895 40.5184 81.7757 43.6636 84 47C84.3008 49.6289 84.3008 49.6289 84.3125 52.5625C84.3293 53.5332 84.346 54.5038 84.3633 55.5039C84.2434 56.3276 84.1235 57.1513 84 58C79.5549 60.9634 75.2162 60.6472 70 60C67.3125 58.125 67.3125 58.125 65 56C63.0187 55.3571 63.0187 55.3571 60.875 54.9375C55.8077 53.7115 55.8077 53.7115 54 51C54 50.34 54 49.68 54 49C53.34 49 52.68 49 52 49C52.2423 49.5232 52.4847 50.0464 52.7344 50.5854C53.8425 53.0069 54.9212 55.4404 56 57.875C56.3816 58.6974 56.7631 59.5198 57.1562 60.3672C57.5172 61.1922 57.8781 62.0172 58.25 62.8672C58.5852 63.6108 58.9203 64.3544 59.2656 65.1206C60 68 60 68 60 78C44.16 78 28.32 78 12 78C12 57.1357 14.5558 38.8389 29.3359 23.2969C32.964 20.1689 36.9194 17.7879 41.0261 15.3428C46.2543 12.1234 49.2935 8.45173 52 3ZM33.2227 29.6016C24.0312 39.5001 18.7923 55.0542 18.75 68.5C18.8325 69.655 18.915 70.81 19 72C25.0716 66.4077 26.1697 62.3077 26.6562 54.3047C27 52 27 52 29 49C29.7631 49.165 30.5263 49.33 31.3125 49.5C34.036 50.0915 34.036 50.0915 37 50C37.8235 43.6177 38.1209 37.4326 38 31C43.75 32.875 43.75 32.875 46 34C47.7495 27.5978 47.7495 27.5978 48 21C42.2449 21 37.3653 25.8686 33.2227 29.6016ZM60 22C57.7193 23.8742 57.7193 23.8742 57.625 26.875C57.735 30.089 57.735 30.089 59.875 32.375C61.8189 34.2025 61.8189 34.2025 64 34C64 35.32 64 36.64 64 38C65.65 38 67.3 38 69 38C68.9652 38.6639 68.9304 39.3277 68.8945 40.0117C68.7695 44.0886 68.7258 47.2785 70.1875 51.125C71.8817 53.274 71.8817 53.274 74.6875 53.3125C75.4506 53.2094 76.2138 53.1063 77 53C76.3312 49.2357 75.3061 45.7384 74.0625 42.125C72.9196 38.7863 71.8362 35.4902 71 32.0625C69.4541 27.328 67.1028 24.7352 63 22C62.01 22 61.02 22 60 22Z" fill="white"/>
</svg>
