<svg width="90" height="90" viewBox="0 0 90 90" fill="none" xmlns="http://www.w3.org/2000/svg">
<path d="M56.4375 7.49988C62.2688 11.0237 66.9694 16.4884 69 22.9999C69.849 30.399 69.976 37.3881 65.8321 43.7772C62.671 47.6124 59.1447 51.0287 55.5235 54.4218C51.1839 58.8554 49.5224 63.0275 48 68.9999C46.02 68.9999 44.04 68.9999 42 68.9999C41.6907 67.7211 41.3813 66.4424 41.0625 65.1249C38.9687 58.7836 34.5685 54.7011 30 49.9999C28.8621 48.7616 27.7352 47.5131 26.625 46.2499C25.9638 45.5151 25.9638 45.5151 25.2891 44.7655C20.2292 37.835 20.1725 31.3039 21 22.9999C22.6947 16.3387 27.4568 11.8192 33 7.99988C39.7819 4.58622 49.4731 4.41368 56.4375 7.49988ZM40 26.9999C39.6667 29.9999 39.6667 29.9999 40 32.9999C41.8851 35.3155 41.8851 35.3155 45 35.2499C48.115 35.3155 48.115 35.3155 50 32.9999C50.3334 29.9999 50.3334 29.9999 50 26.9999C48.115 24.6843 48.115 24.6843 45 24.7499C41.8851 24.6843 41.8851 24.6843 40 26.9999Z" fill="white"/>
<path d="M15 51C16.6007 50.9187 18.2026 50.8607 19.8047 50.8125C20.6966 50.7777 21.5884 50.7429 22.5073 50.707C25.4852 51.057 26.2683 51.7037 28.125 54C28.7437 54.99 29.3625 55.98 30 57C25.545 57.495 25.545 57.495 21 58C19.02 63.28 17.04 68.56 15 74C34.8 74 54.6 74 75 74C73.02 68.72 71.04 63.44 69 58C66.03 57.67 63.06 57.34 60 57C62.6522 52.7565 62.6522 52.7565 65 51C67.4927 50.707 67.4927 50.707 70.1953 50.8125C71.0952 50.8396 71.9952 50.8666 72.9224 50.8945C73.9508 50.9467 73.9508 50.9467 75 51C76.5198 54.6796 78.0122 58.3698 79.5 62.0625C80.1439 63.62 80.1439 63.62 80.8008 65.209C81.2068 66.2241 81.6129 67.2393 82.0312 68.2852C82.4083 69.2121 82.7854 70.139 83.1738 71.094C84 74 84 74 84 81C58.26 81 32.52 81 6 81C6 73.125 6 73.125 7.96875 68.2852C8.3748 67.27 8.78086 66.2549 9.19922 65.209C9.62848 64.1706 10.0577 63.1323 10.5 62.0625C10.9293 60.9971 11.3585 59.9317 11.8008 58.834C12.8565 56.2181 13.9231 53.6072 15 51Z" fill="white"/>
</svg>
