<svg width="90" height="90" viewBox="0 0 90 90" fill="none" xmlns="http://www.w3.org/2000/svg">
<path d="M34 12C35.1926 15.4435 34.7774 17.3589 33.5625 20.75C30.719 29.7674 31.8425 36.5748 36 45C40.6116 51.9933 46.1947 55.3982 54 58C56.1016 58.1207 58.2074 58.1754 60.3125 58.1875C61.9773 58.2088 61.9773 58.2088 63.6757 58.2305C67.101 57.993 69.7758 57.1264 73 56C75.875 56.375 75.875 56.375 78 57C78.6562 58.7266 78.6562 58.7266 79 61C74.9 70.0926 67.0837 76.3478 58 80C49.4564 82.8928 37.1896 82.1583 29.1367 78.2617C20.4684 73.1432 13.2182 66.8025 9.69527 57.1367C7.09328 45.3985 8.06155 33.817 14.5078 23.6133C19.1115 17.136 25.4671 9.515 34 12Z" fill="white"/>
</svg>
