<svg width="90" height="90" viewBox="0 0 90 90" fill="none" xmlns="http://www.w3.org/2000/svg">
<path d="M83.9999 12.0001C83.9999 16.9501 83.9999 21.9001 83.9999 27.0001C78.8892 28.874 74.0541 30.249 68.6718 31.1016C67.6054 31.2726 66.539 31.4436 65.4403 31.6197C64.2323 31.808 64.2323 31.808 62.9999 32.0001C63.0156 33.2712 63.0313 34.5424 63.0475 35.8521C63.1019 40.582 63.1363 45.3119 63.1647 50.0421C63.1797 52.0867 63.2002 54.1313 63.2262 56.1758C63.2627 59.1199 63.2797 62.0636 63.2929 65.0079C63.3083 65.9175 63.3238 66.8271 63.3398 67.7643C63.3411 72.9464 62.8923 76.5126 59.9999 81.0001C56.8075 83.9929 53.7323 84.3066 49.4999 84.5626C45.4074 84.419 44.2384 84.1731 40.8124 81.6876C37.9098 77.2384 38.2086 72.074 38.9999 67.0001C40.5997 63.4196 42.1046 62.3994 45.6444 60.8204C53.0648 58.0001 53.0648 58.0001 55.9999 58.0001C56.0197 56.7988 56.0395 55.5976 56.06 54.3599C56.1359 49.9131 56.2246 45.4666 56.3173 41.0201C56.3556 39.0937 56.3905 37.1673 56.4218 35.2408C56.4673 32.4754 56.5253 29.7105 56.5858 26.9454C56.5974 26.0808 56.6089 25.2161 56.6208 24.3253C56.7722 18.2278 56.7722 18.2278 58.9999 16.0001C61.7109 15.2013 64.3752 14.5064 67.1249 13.8751C67.8597 13.6933 68.5944 13.5116 69.3515 13.3243C74.3488 12.1541 78.8697 11.8256 83.9999 12.0001Z" fill="white"/>
<path d="M0 9C6.47114 9 8.64169 9.96067 13.875 13.125C14.5634 13.504 15.2517 13.883 15.9609 14.2734C19.1745 16.1863 20.8095 17.3582 21.8906 21C20.5907 25.3786 17.6702 26.7855 13.875 28.875C13.2098 29.2772 12.5447 29.6794 11.8594 30.0938C7.26685 32.7412 5.81028 33 0 33C0 25.08 0 17.16 0 9Z" fill="white"/>
<path d="M9 48C22.86 48 36.72 48 51 48C51 49.98 51 51.96 51 54C37.14 54 23.28 54 9 54C9 52.02 9 50.04 9 48Z" fill="white"/>
<path d="M21.6055 32.8047C22.4447 32.8075 23.2839 32.8103 24.1485 32.8133C26.8283 32.8245 29.5078 32.8496 32.1875 32.875C34.0046 32.885 35.8216 32.8942 37.6387 32.9023C42.0926 32.9244 46.5462 32.9589 51 33C51 34.98 51 36.96 51 39C37.14 39 23.28 39 9 39C10.7925 31.8302 15.2674 32.7245 21.6055 32.8047Z" fill="white"/>
<path d="M9 63C17.91 63 26.82 63 36 63C35.34 64.98 34.68 66.96 34 69C25.75 69 17.5 69 9 69C9 67.02 9 65.04 9 63Z" fill="white"/>
<path d="M26 18C34.25 18 42.5 18 51 18C51 19.98 51 21.96 51 24C42.75 24 34.5 24 26 24C26 22.02 26 20.04 26 18Z" fill="white"/>
</svg>
