<svg width="85" height="85" viewBox="0 0 85 85" fill="none" xmlns="http://www.w3.org/2000/svg">
<path d="M42.4999 7.08337C62.0605 7.08337 77.9166 22.9394 77.9166 42.5C77.9166 62.0607 62.0605 77.9167 42.4999 77.9167C22.9393 77.9167 7.08325 62.0607 7.08325 42.5C7.08325 22.9394 22.9393 7.08337 42.4999 7.08337ZM42.4999 14.1667C34.9855 14.1667 27.7788 17.1518 22.4652 22.4653C17.1517 27.7789 14.1666 34.9856 14.1666 42.5C14.1666 50.0145 17.1517 57.2212 22.4652 62.5347C27.7788 67.8483 34.9855 70.8334 42.4999 70.8334C50.0144 70.8334 57.2211 67.8483 62.5346 62.5347C67.8481 57.2212 70.8333 50.0145 70.8333 42.5C70.8333 34.9856 67.8481 27.7789 62.5346 22.4653C57.2211 17.1518 50.0144 14.1667 42.4999 14.1667ZM27.3699 49.9765C32.392 48.8219 37.7647 48.8361 42.4114 49.555C46.9305 50.2563 51.3151 51.7155 54.0174 53.9255C54.7182 54.4946 55.1751 55.3098 55.2949 56.2046C55.4148 57.0994 55.1884 58.0061 54.662 58.7396C54.1357 59.473 53.3491 59.9778 52.4631 60.1507C51.5771 60.3236 50.6584 60.1517 49.8949 59.67L49.5337 59.4115C48.2728 58.3773 45.3616 57.1802 41.3241 56.5569C37.4105 55.9477 32.9587 55.9619 28.9566 56.8792C28.5009 56.9903 28.0277 57.0098 27.5644 56.9365C27.1012 56.8632 26.6571 56.6986 26.2579 56.4523C25.8588 56.206 25.5125 55.8829 25.2392 55.5017C24.966 55.1205 24.7712 54.6888 24.6661 54.2317C24.561 53.7746 24.5478 53.3012 24.6272 52.8389C24.7066 52.3767 24.877 51.9348 25.1285 51.5389C25.38 51.143 25.7077 50.8011 26.0925 50.5329C26.4773 50.2646 26.9115 50.0755 27.3699 49.9765ZM25.5283 40.3042C37.0705 37.0848 50.497 38.9052 58.6889 43.9344C59.4896 44.4261 60.0623 45.2158 60.2808 46.1298C60.4993 47.0437 60.3458 48.007 59.8541 48.8078C59.3624 49.6085 58.5727 50.1811 57.6587 50.3997C56.7448 50.6182 55.7815 50.4647 54.9808 49.973C48.666 46.0948 37.3078 44.3736 27.4266 47.1255C26.9741 47.2653 26.4983 47.3131 26.027 47.2658C25.5558 47.2185 25.0989 47.0773 24.6833 46.8503C24.2676 46.6234 23.9017 46.3154 23.6072 45.9445C23.3126 45.5737 23.0955 45.1476 22.9685 44.6914C22.8415 44.2351 22.8073 43.7581 22.868 43.2884C22.9286 42.8187 23.0828 42.366 23.3215 41.957C23.5601 41.5479 23.8784 41.1909 24.2574 40.907C24.6365 40.6231 25.0686 40.4182 25.5283 40.3042ZM23.8353 30.1538C37.152 26.435 50.3837 28.3653 61.6108 33.2138C62.4656 33.5911 63.1367 34.291 63.4778 35.1609C63.8189 36.0309 63.8024 37.0003 63.4319 37.8581C63.0614 38.716 62.3669 39.3926 61.4997 39.7406C60.6325 40.0887 59.663 40.0799 58.8022 39.7163C48.7793 35.3848 37.2193 33.7734 25.7408 36.975C25.2902 37.1089 24.8176 37.1518 24.3503 37.1011C23.883 37.0505 23.4305 36.9073 23.0192 36.68C22.6078 36.4527 22.2458 36.1458 21.9542 35.7772C21.6626 35.4085 21.4474 34.9856 21.3209 34.5329C21.1945 34.0802 21.1594 33.6069 21.2177 33.1406C21.276 32.6742 21.4266 32.2241 21.6606 31.8165C21.8947 31.4089 22.2075 31.052 22.5808 30.7666C22.9542 30.4811 23.3807 30.2728 23.8353 30.1538Z" fill="#8552C5"/>
</svg>
