<svg width="90" height="90" viewBox="0 0 90 90" fill="none" xmlns="http://www.w3.org/2000/svg">
<path d="M56.5076 13.2344C60.0936 15.7749 62.6675 18.2777 64.9998 22C65.4097 22.6214 65.8196 23.2427 66.242 23.8828C70.0723 30.8302 70.1943 39.2832 68.9998 47C67.7164 50.9522 66.036 54.3955 63.9998 58C64.5095 58.4941 65.0193 58.9881 65.5445 59.4971C67.8499 61.7402 70.1436 63.9949 72.4373 66.25C73.6409 67.416 73.6409 67.416 74.8689 68.6055C75.6327 69.3596 76.3965 70.1137 77.1834 70.8906C77.8904 71.5819 78.5973 72.2732 79.3257 72.9854C81.0586 75.0708 81.7509 76.3132 81.9998 79C80.5623 80.75 80.5623 80.75 78.9998 82C75.175 80.6931 72.8277 79.1896 70.0115 76.3047C69.3057 75.5893 68.6 74.8739 67.8728 74.1367C67.1516 73.3904 66.4304 72.644 65.6873 71.875C64.9467 71.1209 64.2062 70.3668 63.4431 69.5899C61.6217 67.7332 59.8077 65.8699 57.9998 64C56.9799 64.5766 56.9799 64.5766 55.9395 65.1648C47.7807 69.63 40.0244 70.2497 30.9998 69C23.423 66.585 17.2559 62.7929 12.9998 56C12.5899 55.3787 12.1799 54.7574 11.7576 54.1172C7.90953 47.1376 7.74924 38.7396 8.99979 31C11.4008 23.4238 15.2129 17.2524 21.9998 13C22.6211 12.5901 23.2424 12.1802 23.8826 11.7578C34.0518 6.15125 46.786 7.59638 56.5076 13.2344ZM20.0545 24.168C15.4459 30.7379 14.8273 37.1633 15.9998 45C18.0726 51.8217 22.4627 56.6881 28.5623 60.3125C34.4556 63.0419 41.1907 63.1735 47.3709 61.2696C53.7349 58.3221 58.3219 53.7351 61.2693 47.3711C63.1733 41.1909 63.0417 34.4559 60.3123 28.5625C57.0073 22.981 52.2751 18.0379 45.9998 16C35.4238 14.4947 27.309 16.0831 20.0545 24.168Z" fill="white"/>
</svg>
