<svg width="90" height="90" viewBox="0 0 90 90" fill="none" xmlns="http://www.w3.org/2000/svg">
<path d="M42 6C43.98 6 45.96 6 48 6C48.3403 7.20656 48.3403 7.20656 48.6875 8.4375C49.1206 9.28312 49.5538 10.1288 50 11C52.5478 11.8939 52.5478 11.8939 55 12C55.66 10.68 56.32 9.36 57 8C59.475 8.495 59.475 8.495 62 9C62.495 12.465 62.495 12.465 63 16C65.5661 16.8554 66.9348 17.014 69.625 16.4375C70.4087 16.2931 71.1925 16.1488 72 16C72.99 16.99 72.99 16.99 74 18C73.9414 19.9102 73.9414 19.9102 73.5625 22.0625C73.2841 24.0116 73.2841 24.0116 73 26C74.9682 27.9682 78.3481 27.6625 81 28C81.495 30.475 81.495 30.475 82 33C80.68 33.66 79.36 34.32 78 35C78.1061 37.4522 78.1061 37.4522 79 40C81.4764 41.3747 81.4764 41.3747 84 42C84 43.98 84 45.96 84 48C83.1956 48.2269 82.3913 48.4537 81.5625 48.6875C80.7169 49.1206 79.8712 49.5538 79 50C78.1061 52.5478 78.1061 52.5478 78 55C79.32 55.66 80.64 56.32 82 57C81.67 58.65 81.34 60.3 81 62C77.535 62.495 77.535 62.495 74 63C73.1446 65.5661 72.986 66.9348 73.5625 69.625C73.7791 70.8006 73.7791 70.8006 74 72C73.34 72.66 72.68 73.32 72 74C70.0898 73.9414 70.0898 73.9414 67.9375 73.5625C66.6381 73.3769 65.3388 73.1912 64 73C62.0318 74.9682 62.3375 78.3481 62 81C59.525 81.495 59.525 81.495 57 82C56.34 80.68 55.68 79.36 55 78C52.5478 78.1061 52.5478 78.1061 50 79C48.6253 81.4764 48.6253 81.4764 48 84C46.02 84 44.04 84 42 84C41.7731 83.1956 41.5463 82.3913 41.3125 81.5625C40.8794 80.7169 40.4462 79.8712 40 79C37.4522 78.1061 37.4522 78.1061 35 78C34.34 79.32 33.68 80.64 33 82C31.35 81.67 29.7 81.34 28 81C27.67 78.69 27.34 76.38 27 74C24.4339 73.1446 23.0652 72.986 20.375 73.5625C19.1994 73.7791 19.1994 73.7791 18 74C17.34 73.34 16.68 72.68 16 72C16.0586 70.0898 16.0586 70.0898 16.4375 67.9375C16.7159 65.9884 16.7159 65.9884 17 64C15.0318 62.0318 11.6519 62.3375 9 62C8.67 60.35 8.34 58.7 8 57C9.32 56.34 10.64 55.68 12 55C11.8939 52.5478 11.8939 52.5478 11 50C8.52364 48.6253 8.52364 48.6253 6 48C6 46.02 6 44.04 6 42C6.80437 41.7731 7.60875 41.5463 8.4375 41.3125C9.28312 40.8794 10.1288 40.4462 11 40C11.8939 37.4522 11.8939 37.4522 12 35C10.68 34.34 9.36 33.68 8 33C8.33 31.35 8.66 29.7 9 28C12.465 27.505 12.465 27.505 16 27C16.8554 24.4339 17.014 23.0652 16.4375 20.375C16.2931 19.5913 16.1488 18.8075 16 18C16.66 17.34 17.32 16.68 18 16C19.9102 16.0586 19.9102 16.0586 22.0625 16.4375C23.3619 16.6231 24.6612 16.8088 26 17C27.9682 15.0318 27.6625 11.6519 28 9C29.65 8.67 31.3 8.34 33 8C33.66 9.32 34.32 10.64 35 12C37.4522 11.8939 37.4522 11.8939 40 11C41.3747 8.52364 41.3747 8.52364 42 6ZM38 22C38 26.5813 39.0629 28.6113 41.1875 32.625C41.7792 33.7723 42.3709 34.9195 42.9805 36.1016C45.176 39.2526 46.3867 39.9676 50 41C50.33 41.33 50.66 41.66 51 42C53.8627 42.0733 56.7007 42.0924 59.5625 42.0625C60.772 42.0557 60.772 42.0557 62.0059 42.0488C64.0039 42.037 66.002 42.0191 68 42C66.9202 34.378 63.5759 30.214 57.8789 25.2969C53.3835 22.194 49.5896 21.7659 44.1875 21.875C43.0261 21.893 41.8646 21.9111 40.668 21.9297C39.3473 21.9645 39.3473 21.9645 38 22ZM30 27C28.9843 28.0276 28.0121 29.0985 27.0625 30.1875C26.5379 30.7792 26.0132 31.3709 25.4727 31.9805C21.2253 37.8051 21.2699 44.0508 22 51C23.6807 56.6234 26.3382 59.4747 31 63C32.356 60.8449 33.6836 58.6791 35 56.5C35.3816 55.8993 35.7631 55.2986 36.1562 54.6797C38.8707 50.1234 40.0383 46.29 39 41C37.9394 38.3079 36.5486 35.938 35 33.5C34.6184 32.8684 34.2369 32.2367 33.8438 31.5859C32.9115 30.0477 31.9579 28.5224 31 27C30.67 27 30.34 27 30 27ZM49 50C48.3864 50.0632 47.7728 50.1263 47.1406 50.1914C43.6235 51.52 42.4413 54.7772 40.75 57.9375C40.2047 58.9072 40.2047 58.9072 39.6484 59.8965C37.6614 63.2486 37.6614 63.2486 37 67C41.6637 69.3319 48.3907 68.6885 53.3242 67.3867C59.6653 64.5588 64.3113 59.3039 67.4375 53.1875C68.1245 50.8922 68.1245 50.8922 68 48C65.2081 47.9462 62.4172 47.9064 59.625 47.875C58.8309 47.8582 58.0369 47.8415 57.2188 47.8242C52.6327 47.5665 52.6327 47.5665 49 50Z" fill="white"/>
</svg>
