<svg width="90" height="90" viewBox="0 0 90 90" fill="none" xmlns="http://www.w3.org/2000/svg">
<path d="M54.5547 24.9452C59.7628 28.0701 63.6933 32.345 66 37.9999C66.8718 45.4514 67.0899 52.2921 62.4297 58.453C58.5085 62.6957 54.622 65.6932 48.8282 66.371C41.2101 66.5124 35.7439 66.3086 30.0001 60.9999C24.2149 54.758 23.495 49.8887 23.6172 41.4921C24.3038 35.2289 27.0602 31.7978 31.5626 27.6249C38.3996 23.0669 46.6729 22.0287 54.5547 24.9452Z" fill="white"/>
<path d="M66.125 62.5C70.6957 63.2949 73.3098 66.3398 76 70C76.5 72.875 76.5 72.875 76 75C75 76 75 76 72.875 76.5C68.3043 75.7051 65.6902 72.6602 63 69C62.5 66.125 62.5 66.125 63 64C64 63 64 63 66.125 62.5Z" fill="white"/>
<path d="M23.875 62.5C26 63 26 63 27 64C27.5 66.125 27.5 66.125 27 69C24.3098 72.6602 21.6957 75.7051 17.125 76.5C15 76 15 76 14 75C13.5 72.875 13.5 72.875 14 70C16.6902 66.3398 19.3043 63.2949 23.875 62.5Z" fill="white"/>
<path d="M72.875 13.5C75 14 75 14 76 15C76.5 17.125 76.5 17.125 76 20C73.3098 23.6602 70.6957 26.7051 66.125 27.5C64 27 64 27 63 26C62.5 23.875 62.5 23.875 63 21C65.6902 17.3398 68.3043 14.2949 72.875 13.5Z" fill="white"/>
<path d="M17.125 13.5C21.6957 14.2949 24.3098 17.3398 27 21C27.5 23.875 27.5 23.875 27 26C26 27 26 27 23.875 27.5C19.3043 26.7051 16.6902 23.6602 14 20C13.5 17.125 13.5 17.125 14 15C15 14 15 14 17.125 13.5Z" fill="white"/>
<path d="M72 42C76.95 42 81.9 42 87 42C88 46 88 46 87 48C82.05 48 77.1 48 72 48C71 44 71 44 72 42Z" fill="white"/>
<path d="M3 42C7.95 42 12.9 42 18 42C19 46 19 46 18 48C13.05 48 8.1 48 3 48C2 44 2 44 3 42Z" fill="white"/>
<path d="M48 72C48 76.95 48 81.9 48 87C44 88 44 88 42 87C42 82.05 42 77.1 42 72C44 71 44 71 48 72Z" fill="white"/>
<path d="M48 3C48 7.95 48 12.9 48 18C44 19 44 19 42 18C42 13.05 42 8.1 42 3C44 2 44 2 48 3Z" fill="white"/>
</svg>
