<svg width="80" height="80" viewBox="0 0 80 80" fill="none" xmlns="http://www.w3.org/2000/svg">
<path d="M71.6126 18.3226C70.1201 17.8301 69.2688 18.0313 68.9088 18.7013C68.4188 19.6038 69.3038 20.9263 71.1788 23.5926C72.6476 25.6638 74.8588 28.8013 74.4601 30.0101C73.6413 32.4888 67.5801 37.1338 65.3188 38.7201L66.2638 39.9376C66.8376 39.6313 80.2413 32.3038 79.7351 25.4126C79.5163 22.4213 76.7863 20.0376 71.6126 18.3226Z" fill="#8A38F5"/>
<path d="M61.4877 43.8874C61.4877 43.8874 63.8827 55.7162 62.1127 59.0249C62.1127 59.0249 44.6327 69.8012 44.9865 64.9849L56.1277 55.9662C56.1277 55.9662 52.5227 45.1437 52.1302 43.7862C52.1302 43.7862 51.4602 34.0212 61.4877 43.8837M9.85897 23.1024C-0.902282 27.3262 10.2515 6.67743 11.329 8.13868C14.714 12.7099 11.3852 22.5124 9.85897 23.1024Z" fill="white"/>
<path d="M13.6677 22.215C2.20519 24.32 18.1252 6.11374 18.8077 7.75999C20.9427 12.905 15.2902 21.9275 13.6677 22.215ZM52.3539 27.8887C61.4564 26.3212 70.3714 29.2262 72.9677 37.7975C75.5614 46.375 74.2564 48.4725 65.4552 51.5725C57.1427 54.515 44.7214 58.0737 41.6177 50.405C39.4552 52.265 37.2639 53.6787 35.6727 54.235C30.7914 55.9612 25.2389 52.0525 23.2539 45.485C21.2752 38.93 23.6139 32.225 28.4927 30.4975C32.0914 29.2275 40.6002 29.9225 52.3539 27.8887Z" fill="white"/>
<path d="M26.954 44.6238C26.954 44.6238 20.0215 45.1188 12.444 52.8925C12.444 52.8925 11.9527 54.465 14.139 57.0888L23.2077 65.5525C23.2077 65.5525 26.2215 64.605 24.5402 61.5L17.8477 54.8788L27.2402 52.0613L29.1515 46.185L26.954 44.6238ZM31.8802 49.2125C31.8802 49.2125 26.384 60.4875 27.2452 63.99C27.2452 63.99 35.0902 71.4413 38.4227 74.1213C38.4227 74.1213 42.729 75.1513 42.4727 72.1725L33.929 61.7988C33.929 61.7988 40.3465 51.6625 41.089 50.3825C41.089 50.385 44.3415 40.89 31.8802 49.2125ZM69.9465 45.4375C69.9465 45.4375 78.4502 54.6688 78.6302 58.2625C78.6302 58.2625 73.2565 67.66 70.8315 71.18C70.8315 71.18 67.0027 73.4013 66.394 70.4725L71.599 58.0925C71.599 58.0925 62.5402 50.2213 61.4602 49.2125C61.4602 49.2125 55.6215 41.0488 69.9465 45.4375Z" fill="white"/>
<path d="M13.7877 13.5376C10.2639 15.2639 5.46019 16.8726 6.02019 20.0089C6.34394 21.8376 6.97894 23.7489 7.78769 25.6701C13.8589 29.4576 19.9777 43.0226 19.9777 43.0226C25.5527 52.0076 24.0627 46.2626 24.9602 45.9839C29.1727 44.6801 37.6327 39.3189 37.7064 34.7826C37.7627 30.2589 17.1914 11.8751 13.7939 13.5376" fill="white"/>
<path d="M7.18887 36.2749C12.0664 34.1587 15.3551 29.8612 17.7189 26.1249C24.0189 16.1637 15.5951 13.2912 15.5139 13.2949C9.87887 10.9274 5.68387 9.69245 0.40137 33.5937C-0.441131 37.3962 2.48137 38.3137 7.19512 36.2749" fill="white"/>
<path d="M26.3125 63.3225C25.54 62.6638 24.5163 62.5188 23.6588 62.475C21.3825 62.3725 21.56 64.1738 21.56 64.1888C21.5963 65.4388 21.5888 66.9575 26.2575 65.4513C26.9988 65.2125 27.0588 63.95 26.3125 63.325M43.2525 72.6875C42.1275 72.0988 40.845 72.185 39.805 72.3413C37.0413 72.7713 37.8225 74.8538 37.8275 74.8663C38.275 76.3338 38.74 78.1225 43.8663 75.205C44.6838 74.7475 44.3513 73.2488 43.2525 72.68M66.6125 70.525C65.8013 71.8313 65.7763 73.3813 65.865 74.6538C66.115 78.0225 68.705 77.2788 68.7288 77.2763C70.5325 76.8813 72.7338 76.485 69.7125 70.025C69.2275 68.9963 67.3888 69.2575 66.6125 70.525ZM44.0125 65.8375C42.9713 66.6775 42.5538 67.8275 42.305 68.7863C41.6463 71.335 44.0738 71.1963 44.0963 71.1938C45.7613 71.1913 47.7638 71.2475 46.8263 65.9575C46.675 65.1225 45.0188 65.0125 44.0125 65.8375ZM23.5188 28.2363C21.0188 24.7963 14.615 27.1188 11.9575 30.2288C10.35 27.1725 7.58627 25.1913 3.84377 24.3688C3.06752 24.1988 0.845023 24.9125 2.51377 25.2825C6.90002 26.245 9.56502 29.2538 10.5263 33.575C10.7063 34.3988 13.3025 34.1888 13.1638 33.575C13.0763 33.1738 12.9513 32.8088 12.8375 32.4325C13.1738 32.3738 13.455 32.26 13.5288 32.0625C14.3013 30.04 19.1863 26.0525 20.9688 28.515C21.4325 29.1563 23.93 28.8 23.5188 28.2363Z" fill="#8A38F5"/>
<path d="M59.7038 28.1588C59.1588 27.1963 58.5151 26.2988 57.7551 25.5825C56.8901 24.765 55.9026 24.5 54.7251 24.5738C53.4288 24.655 52.7413 25.6338 52.3188 26.7525C48.8851 27.6075 45.4476 27.6625 42.0226 28.0013C41.827 27.6725 41.5891 27.3707 41.3151 27.1038C40.6763 26.5263 39.7626 26.3738 38.9326 26.5013C37.7451 26.6863 37.2288 27.4675 36.8138 28.5325C36.7263 28.7525 36.7263 29.3763 36.9938 29.49C37.1263 29.795 38.4976 29.615 38.9913 29.5275L39.5901 29.6388C40.3863 31.1975 40.9363 32.765 41.2001 34.5775C41.4163 36.0425 40.8563 37.9588 41.5788 39.325C42.6426 41.3463 44.4351 42.2988 46.7201 42.32C47.0963 42.3225 47.5076 42.3125 47.9126 42.3038C48.9101 42.4075 49.9738 42.3225 51.0626 42.1075C54.7001 41.7275 58.6251 40.75 60.8588 38.4663C63.0113 36.2675 62.0051 30.9038 59.7038 28.1463" fill="#8A38F5"/>
</svg>
